<?xml version="1.0" standalone="no"?>
<!DOCTYPE svg PUBLIC "-//W3C//DTD SVG 20010904//EN"
 "http://www.w3.org/TR/2001/REC-SVG-20010904/DTD/svg10.dtd">
<svg version="1.0" xmlns="http://www.w3.org/2000/svg"
 width="400.000000pt" height="400.000000pt" viewBox="0 0 400.000000 400.000000"
 preserveAspectRatio="xMidYMid meet">

<g transform="translate(0.000000,400.000000) scale(0.100000,-0.100000)"
fill="#000000" stroke="none">
<path d="M0 2000 l0 -2000 2000 0 2000 0 0 2000 0 2000 -2000 0 -2000 0 0
-2000z m1299 364 l-107 -107 61 -41 c114 -76 172 -193 166 -334 -7 -140 -88
-260 -217 -320 -50 -24 -70 -27 -157 -27 -87 0 -107 3 -157 27 -114 53 -201
168 -215 286 l-6 52 35 0 c33 0 34 -1 46 -58 18 -86 71 -157 152 -201 59 -33
72 -36 145 -36 93 0 154 24 215 85 62 62 85 122 84 215 -1 90 -16 134 -66 191
-37 42 -113 94 -138 94 -8 0 -62 -47 -120 -105 -58 -58 -108 -105 -112 -105
-5 0 -8 19 -8 43 0 41 3 46 160 202 88 88 160 163 160 167 0 5 -95 8 -212 8
l-212 0 34 35 34 35 270 0 271 0 -106 -106z m780 -369 c109 -253 197 -463 195
-467 -3 -5 -18 -8 -34 -8 -33 0 -44 13 -81 102 l-24 58 -266 0 -266 0 -36 -80
c-33 -74 -38 -80 -66 -80 -16 0 -32 4 -36 9 -7 13 397 943 407 933 4 -4 97
-214 207 -467z m535 265 c103 -113 191 -206 195 -208 4 -1 94 90 200 203 106
113 195 205 197 205 2 0 4 -209 4 -465 l0 -465 -35 0 -35 0 0 370 c0 204 -3
370 -8 370 -6 0 -150 -150 -271 -282 -24 -27 -46 -48 -50 -48 -3 0 -76 77
-160 170 -85 94 -157 170 -160 170 -4 0 -6 -168 -6 -372 l0 -373 -37 -3 -38
-3 0 471 c0 260 4 470 8 468 5 -1 93 -95 196 -208z"/>
<path d="M1749 2022 l-115 -267 229 -3 c127 -1 232 0 234 2 4 4 -214 514 -226
528 -3 3 -58 -114 -122 -260z"/>
</g>
</svg>
